<svg xmlns="http://www.w3.org/2000/svg" width="1280" height="760" viewBox="0 0 1280 760">
  <rect width="1280" height="760" fill="#f8fafc"/>
  <rect width="235" height="760" fill="#0f172a"/>
  <text x="28" y="48" font-family="Arial" font-weight="700" font-size="20" fill="#fff">Monocore</text>
  <text x="28" y="100" font-family="Arial" font-size="12" fill="#94a3b8">BACKEND-DRIVEN MENU</text>
  <g fill="#1e293b">
    <rect x="16" y="122" width="203" height="42" rx="8"/>
    <rect x="16" y="172" width="203" height="42" rx="8"/>
    <rect x="16" y="222" width="203" height="42" rx="8"/>
    <rect x="16" y="272" width="203" height="42" rx="8"/>
  </g>
  <g font-family="Arial" font-size="14" fill="#cbd5e1">
    <text x="35" y="149">Users</text><text x="35" y="199">Roles</text>
    <text x="35" y="249">Schemas</text><text x="35" y="299">Operations</text>
  </g>
  <rect x="235" y="0" width="1045" height="66" fill="#fff" stroke="#e2e8f0"/>
  <text x="270" y="40" font-family="Arial" font-size="14" fill="#64748b">Home / Administration / Users</text>
  <circle cx="1215" cy="33" r="17" fill="#e2e8f0"/>
  <text x="270" y="118" font-family="Arial" font-weight="700" font-size="30" fill="#0f172a">Users</text>
  <rect x="1080" y="88" width="150" height="42" rx="8" fill="#4f46e5"/>
  <text x="1112" y="115" font-family="Arial" font-weight="700" font-size="14" fill="#fff">Add user</text>
  <rect x="270" y="153" width="960" height="76" rx="12" fill="#fff" stroke="#e2e8f0"/>
  <rect x="292" y="171" width="280" height="40" rx="8" fill="#fff" stroke="#cbd5e1"/>
  <text x="308" y="196" font-family="Arial" font-size="13" fill="#64748b">Search and filters</text>
  <rect x="1068" y="171" width="68" height="40" rx="8" fill="#f1f5f9"/>
  <rect x="1146" y="171" width="62" height="40" rx="8" fill="#f1f5f9"/>
  <rect x="270" y="250" width="960" height="390" rx="12" fill="#fff" stroke="#e2e8f0"/>
  <rect x="270" y="250" width="960" height="54" rx="12" fill="#eef2ff"/>
  <g font-family="Arial" font-weight="700" font-size="13" fill="#334155">
    <text x="302" y="283">Select</text><text x="395" y="283">Username</text>
    <text x="600" y="283">Active</text><text x="720" y="283">Created</text>
    <text x="930" y="283">Updated</text><text x="1135" y="283">Actions</text>
  </g>
  <g stroke="#e2e8f0">
    <line x1="270" y1="358" x2="1230" y2="358"/><line x1="270" y1="412" x2="1230" y2="412"/>
    <line x1="270" y1="466" x2="1230" y2="466"/><line x1="270" y1="520" x2="1230" y2="520"/>
  </g>
  <g font-family="Arial" font-size="13" fill="#475569">
    <text x="395" y="338">alex</text><text x="600" y="338">Yes</text><text x="720" y="338">2026-07-21</text>
    <text x="395" y="392">maria</text><text x="600" y="392">Yes</text><text x="720" y="392">2026-07-18</text>
    <text x="395" y="446">demo</text><text x="600" y="446">No</text><text x="720" y="446">2026-07-10</text>
  </g>
  <rect x="292" y="576" width="170" height="40" rx="8" fill="none" stroke="#ef4444" stroke-dasharray="6 4"/>
  <text x="306" y="601" font-family="Arial" font-size="13" fill="#ef4444">Bulk action if granted</text>
  <text x="1050" y="601" font-family="Arial" font-size="13" fill="#64748b">Page 1 of 8</text>
  <text x="256" y="735" font-family="Arial" font-size="12" fill="#64748b">RMC concept mockup • permission-aware admin list • 2026-07-23</text>
</svg>

