<svg xmlns="http://www.w3.org/2000/svg" width="1280" height="760" viewBox="0 0 1280 760">
  <rect width="1280" height="760" fill="#f8fafc"/>
  <rect width="235" height="760" fill="#0f172a"/>
  <text x="28" y="48" font-family="Arial" font-weight="700" font-size="20" fill="#fff">Monocore</text>
  <rect x="235" width="1045" height="66" fill="#fff" stroke="#e2e8f0"/>
  <text x="270" y="40" font-family="Arial" font-size="14" fill="#64748b">Administration / Users / Edit</text>
  <text x="270" y="120" font-family="Arial" font-weight="700" font-size="30" fill="#0f172a">Edit User</text>
  <g font-family="Arial" font-size="14" fill="#475569">
    <text x="280" y="174">Details</text><text x="370" y="174">Emails</text><text x="455" y="174">Phones</text>
    <text x="545" y="174">Roles</text><text x="620" y="174">Schemas</text>
    <text x="720" y="174">Configuration</text><text x="845" y="174">Block Permissions</text>
  </g>
  <line x1="270" y1="190" x2="1225" y2="190" stroke="#cbd5e1"/>
  <line x1="270" y1="190" x2="345" y2="190" stroke="#4f46e5" stroke-width="4"/>
  <rect x="270" y="220" width="955" height="420" rx="14" fill="#fff" stroke="#e2e8f0"/>
  <text x="300" y="260" font-family="Arial" font-weight="700" font-size="17" fill="#0f172a">User details</text>
  <text x="300" y="302" font-family="Arial" font-size="12" fill="#475569">Username</text>
  <rect x="300" y="314" width="410" height="45" rx="8" fill="#fff" stroke="#cbd5e1"/>
  <text x="740" y="302" font-family="Arial" font-size="12" fill="#475569">New password</text>
  <rect x="740" y="314" width="410" height="45" rx="8" fill="#fff" stroke="#cbd5e1"/>
  <text x="300" y="405" font-family="Arial" font-weight="700" font-size="16" fill="#0f172a">Settings</text>
  <rect x="300" y="430" width="20" height="20" rx="4" fill="#4f46e5"/>
  <text x="330" y="446" font-family="Arial" font-size="14" fill="#334155">Active</text>
  <rect x="430" y="430" width="20" height="20" rx="4" fill="#fff" stroke="#94a3b8"/>
  <text x="460" y="446" font-family="Arial" font-size="14" fill="#334155">Should update password</text>
  <rect x="300" y="500" width="850" height="48" rx="8" fill="none" stroke="#ef4444" stroke-dasharray="6 5"/>
  <text x="320" y="530" font-family="Arial" font-size="13" fill="#ef4444">Form/API error region when needed</text>
  <rect x="1020" y="575" width="130" height="42" rx="8" fill="#4f46e5"/>
  <text x="1065" y="602" font-family="Arial" font-weight="700" font-size="14" fill="#fff">Save</text>
  <rect x="865" y="575" width="135" height="42" rx="8" fill="#fff" stroke="#cbd5e1"/>
  <text x="905" y="602" font-family="Arial" font-size="14" fill="#334155">Cancel</text>
  <text x="256" y="735" font-family="Arial" font-size="12" fill="#64748b">RMC concept mockup • tabbed administration form • 2026-07-23</text>
</svg>
