<svg xmlns="http://www.w3.org/2000/svg" width="1280" height="760" viewBox="0 0 1280 760">
  <rect width="1280" height="760" fill="#f8fafc"/>
  <rect width="610" height="760" fill="#4f46e5"/>
  <circle cx="80" cy="90" r="150" fill="#ffffff" opacity=".08"/>
  <circle cx="535" cy="330" r="180" fill="#ffffff" opacity=".06"/>
  <rect x="64" y="58" width="42" height="42" rx="12" fill="#fff"/>
  <text x="78" y="86" font-family="Arial" font-weight="700" font-size="20" fill="#4f46e5">M</text>
  <text x="120" y="85" font-family="Arial" font-weight="700" font-size="22" fill="#fff">Monocore</text>
  <text x="64" y="365" font-family="Arial" font-weight="700" font-size="42" fill="#fff">One codebase.</text>
  <text x="64" y="415" font-family="Arial" font-weight="700" font-size="42" fill="#fff">Every platform.</text>
  <text x="64" y="460" font-family="Arial" font-size="18" fill="#e0e7ff">Manage the workspace across web and native.</text>
  <rect x="760" y="90" width="410" height="580" rx="22" fill="#fff" stroke="#e2e8f0"/>
  <text x="810" y="145" font-family="Arial" font-size="13" letter-spacing="2" fill="#64748b">WELCOME BACK</text>
  <text x="810" y="188" font-family="Arial" font-weight="700" font-size="30" fill="#0f172a">Good to see you again</text>
  <text x="810" y="218" font-family="Arial" font-size="14" fill="#64748b">Sign in to pick up where you left off.</text>
  <rect x="810" y="248" width="310" height="48" rx="9" fill="#fff" stroke="#cbd5e1"/>
  <text x="826" y="278" font-family="Arial" font-size="14" fill="#64748b">Username or email</text>
  <rect x="810" y="320" width="310" height="48" rx="9" fill="#fff" stroke="#cbd5e1"/>
  <text x="826" y="350" font-family="Arial" font-size="14" fill="#64748b">Password</text>
  <text x="1009" y="393" font-family="Arial" font-size="13" fill="#4f46e5">Forgot password?</text>
  <rect x="810" y="412" width="310" height="48" rx="9" fill="#4f46e5"/>
  <text x="943" y="442" font-family="Arial" font-weight="700" font-size="14" fill="#fff">Sign in</text>
  <line x1="810" y1="491" x2="920" y2="491" stroke="#cbd5e1"/>
  <text x="933" y="496" font-family="Arial" font-size="12" fill="#64748b">OR</text>
  <line x1="964" y1="491" x2="1120" y2="491" stroke="#cbd5e1"/>
  <rect x="810" y="520" width="68" height="48" rx="9" fill="#9146ff"/>
  <rect x="891" y="520" width="68" height="48" rx="9" fill="#4285f4"/>
  <rect x="972" y="520" width="68" height="48" rx="9" fill="#111827"/>
  <rect x="1052" y="520" width="68" height="48" rx="9" fill="#24292e"/>
  <text x="823" y="597" font-family="Arial" font-size="12" fill="#64748b">Error, notice, rate-limit, or schema selection</text>
  <rect x="810" y="610" width="310" height="34" rx="8" fill="none" stroke="#f59e0b" stroke-dasharray="6 5"/>
  <text x="32" y="735" font-family="Arial" font-size="12" fill="#c7d2fe">RMC concept mockup • desktop login • 2026-07-23</text>
</svg>

