<svg xmlns="http://www.w3.org/2000/svg" width="430" height="900" viewBox="0 0 430 900">
  <rect width="430" height="900" rx="34" fill="#0f172a"/>
  <rect x="12" y="12" width="406" height="876" rx="28" fill="#f8fafc"/>
  <rect x="12" y="12" width="406" height="72" rx="28" fill="#fff"/>
  <text x="32" y="56" font-family="Arial" font-weight="700" font-size="19" fill="#0f172a">Monocore</text>
  <circle cx="378" cy="48" r="18" fill="#e2e8f0"/>
  <text x="28" y="122" font-family="Arial" font-size="13" fill="#64748b">Administration / Users</text>
  <text x="28" y="162" font-family="Arial" font-weight="700" font-size="27" fill="#0f172a">Users</text>
  <rect x="28" y="186" width="374" height="52" rx="10" fill="#fff" stroke="#cbd5e1"/>
  <text x="47" y="218" font-family="Arial" font-size="14" fill="#64748b">Search users</text>
  <rect x="28" y="258" width="374" height="140" rx="14" fill="#fff" stroke="#e2e8f0"/>
  <text x="48" y="292" font-family="Arial" font-weight="700" font-size="16" fill="#0f172a">alex</text>
  <text x="48" y="322" font-family="Arial" font-size="13" fill="#64748b">Active • Created 2026-07-21</text>
  <line x1="48" y1="344" x2="382" y2="344" stroke="#e2e8f0"/>
  <text x="48" y="374" font-family="Arial" font-size="13" fill="#4f46e5">Expand hidden columns</text>
  <rect x="28" y="416" width="374" height="140" rx="14" fill="#fff" stroke="#e2e8f0"/>
  <text x="48" y="450" font-family="Arial" font-weight="700" font-size="16" fill="#0f172a">maria</text>
  <text x="48" y="480" font-family="Arial" font-size="13" fill="#64748b">Active • Created 2026-07-18</text>
  <line x1="48" y1="502" x2="382" y2="502" stroke="#e2e8f0"/>
  <text x="48" y="532" font-family="Arial" font-size="13" fill="#4f46e5">Expand hidden columns</text>
  <circle cx="367" cy="700" r="29" fill="#4f46e5"/>
  <text x="358" y="709" font-family="Arial" font-size="26" fill="#fff">+</text>
  <rect x="12" y="798" width="406" height="90" rx="28" fill="#fff" stroke="#e2e8f0"/>
  <g font-family="Arial" font-size="12" fill="#64748b">
    <text x="42" y="850">Home</text><text x="132" y="850">Users</text>
    <text x="225" y="850">Activity</text><text x="330" y="850">Account</text>
  </g>
  <text x="28" y="780" font-family="Arial" font-size="11" fill="#64748b">RMC concept mockup • native responsive shell</text>
</svg>

